<svg width="33" height="23" viewBox="0 0 33 23" fill="none" xmlns="http://www.w3.org/2000/svg">
<path fill-rule="evenodd" clip-rule="evenodd" d="M31.1293 1.74937C31.6418 2.25948 32.0111 2.89545 32.2 3.59341C32.8711 6.15588 32.8846 11.5054 32.8846 11.5054C32.8846 11.5054 32.8846 16.8549 32.2 19.4174C32.0094 20.1134 31.6394 20.7471 31.1271 21.2552C30.6147 21.7633 29.9779 22.128 29.2804 22.3127C26.7179 23 16.4355 23 16.4355 23C16.4355 23 6.15588 23 3.59341 22.3235C2.89682 22.1363 2.26169 21.7692 1.75164 21.2592C1.24159 20.7491 0.874549 20.114 0.687294 19.4174C0 16.8549 0 11.5054 0 11.5054C0 11.5054 0 6.15588 0.687294 3.59341C0.874549 2.89683 1.24159 2.26169 1.75164 1.75164C2.26169 1.24159 2.89682 0.874549 3.59341 0.687294C6.15318 0 16.4355 0 16.4355 0C16.4355 0 26.7152 0 29.2804 0.687294C29.9792 0.872977 30.6169 1.23926 31.1293 1.74937ZM21.6904 11.5054L13.1479 16.4355V6.57531L21.6904 11.5054Z" fill="#151515"/>
</svg>
